<svg width="246" height="55" viewBox="0 0 246 55" fill="none" xmlns="http://www.w3.org/2000/svg">
<g clip-path="url(#clip0_9_847)">
<path d="M95.4023 45.9908H242.149L243.188 43.4199H96.4855L95.4023 45.9908Z" fill="#E73729"/>
<path d="M93.5425 50.4405H240.202C240.53 49.8033 240.836 49.1661 241.11 48.5288L241.372 47.8586H94.6365L93.5425 50.4405Z" fill="#E73729"/>
<path d="M91.6823 54.8571H237.324C237.975 54.0332 238.581 53.175 239.14 52.2861H92.7108L91.6167 54.8571" fill="#E73729"/>
<path d="M41.7166 0.0109863L36.7058 12.0965H23.0519L28.0518 0.0109863H15.3935L0 37.2123H12.6692L18.6538 22.7207H32.3186L26.3122 37.2123H38.9924L54.3859 0.0109863H41.7166Z" fill="#263C8A"/>
<path d="M88.6191 22.4021L92.7438 12.3931H105.085L100.938 22.4021H88.6191Z" fill="#263C8A"/>
<path d="M98.9907 37.2123L114.384 0.0109863H126.977L115.785 27.0715H134.668L130.489 37.2123H98.9907Z" fill="#263C8A"/>
<path d="M89.8664 9.13013H76.9674L69.7356 26.6431H58.9372L66.1799 9.13013H53.3247L45.0098 29.214C44.9441 29.3459 44.8785 29.4997 44.8238 29.6315C43.314 33.2352 44.7363 36.2236 47.9856 36.5642H48.3576H48.6421H48.9375H65.611L62.0772 45.046H46.4977L42.384 55.044H64.4294C68.0836 54.8902 72.1972 51.8359 73.7508 48.0894L73.4773 48.7376L89.8226 9.18506" fill="#263C8A"/>
<path d="M208.255 37.2563L196.297 23.5118L219.743 8.97623H202.642L189.021 17.3262L196.187 0H184.448L169.033 37.2563H180.783L184.218 28.9393L190.936 37.2563H208.255Z" fill="#263C8A"/>
<path d="M159.011 26.5441C158.479 27.7572 157.627 28.8014 156.547 29.5642C155.468 30.327 154.201 30.7795 152.884 30.8729H150.587C148.224 30.8729 147.097 28.9392 148.081 26.5441L150.959 19.5784C151.494 18.38 152.34 17.348 153.408 16.5903C154.476 15.8327 155.727 15.3772 157.031 15.2716H159.339C161.713 15.2716 162.818 17.2053 161.845 19.5784L158.967 26.5441M168.004 7.32812H155.204C149.165 7.32812 142.25 12.2612 139.734 18.3149L135.751 27.9724C133.235 34.0371 136.08 38.9592 142.097 38.9592H154.887C160.915 38.9592 167.829 34.0041 170.367 27.9724L174.361 18.3149C176.866 12.2392 174.033 7.32812 168.004 7.32812Z" fill="#263C8A"/>
<path d="M214.677 25.1268H218.528C219.147 25.1147 219.765 25.1849 220.366 25.3356C220.904 25.4944 221.386 25.803 221.756 26.2255C222.057 26.5613 222.289 26.9535 222.439 27.3795C222.59 27.8056 222.655 28.2572 222.631 28.7085C222.652 29.1988 222.574 29.6884 222.401 30.1474C222.228 30.6064 221.964 31.0252 221.624 31.3783C221.095 31.8933 220.424 32.2376 219.699 32.3671L222.828 37.3222H219.546L216.614 32.5209L216.034 37.3222H213.233L214.677 25.1268ZM217.215 27.3242L216.789 30.6202H217.489C218.066 30.6613 218.64 30.5065 219.119 30.1808C219.331 30.0116 219.498 29.7931 219.607 29.5442C219.716 29.2953 219.762 29.0235 219.743 28.7525C219.758 28.5209 219.713 28.2893 219.611 28.0809C219.51 27.8726 219.355 27.6949 219.163 27.5659C218.685 27.3416 218.157 27.2433 217.631 27.2802L217.215 27.3242Z" fill="#999999"/>
<path d="M225.716 25.127H228.528L227.718 31.785C227.666 32.149 227.637 32.5159 227.631 32.8836C227.592 33.4598 227.781 34.0282 228.156 34.4657C228.602 34.8495 229.178 35.0462 229.764 35.0151C230.086 35.0374 230.41 34.9954 230.716 34.8917C231.022 34.788 231.304 34.6246 231.547 34.4108C232.056 33.7394 232.343 32.925 232.368 32.0816L233.21 25.1709H236.033L235.158 32.2684C235.07 32.9386 235.005 33.444 234.939 33.7736C234.844 34.2102 234.709 34.6369 234.534 35.048C234.355 35.5279 234.08 35.9655 233.725 36.3335C233.178 36.8049 232.543 37.1631 231.858 37.3874C231.173 37.6118 230.45 37.698 229.731 37.6409C229.035 37.6982 228.335 37.6149 227.672 37.396C227.009 37.1771 226.396 36.827 225.869 36.3665C225.503 35.9971 225.216 35.5555 225.028 35.0696C224.84 34.5836 224.754 34.0638 224.775 33.5429C224.775 33.1363 224.83 32.4991 224.928 31.6202L225.716 25.127Z" fill="#999999"/>
<path d="M245.989 26.0608L244.589 28.1044C244.046 27.5631 243.318 27.249 242.554 27.2254C242.146 27.1953 241.74 27.3079 241.405 27.5441C241.271 27.6475 241.163 27.7807 241.089 27.9332C241.015 28.0857 240.977 28.2534 240.978 28.423C240.978 28.5833 241.016 28.7412 241.091 28.883C241.165 29.0248 241.273 29.146 241.405 29.236C241.77 29.5009 242.167 29.7187 242.587 29.8843L243.298 30.2139C243.912 30.4748 244.458 30.8732 244.895 31.3785C245.315 31.9208 245.535 32.5923 245.519 33.2792C245.533 33.8493 245.433 34.4166 245.225 34.9471C245.016 35.4776 244.703 35.9603 244.304 36.3665C243.831 36.7849 243.28 37.1051 242.683 37.3088C242.086 37.5124 241.454 37.5954 240.825 37.5531C239.982 37.5795 239.147 37.3905 238.396 37.0037C237.791 36.6617 237.244 36.224 236.777 35.7073L238.342 33.6967C238.616 34.0811 238.962 34.4093 239.359 34.6635C239.785 34.9319 240.278 35.0729 240.781 35.07C241.26 35.0932 241.733 34.9581 242.127 34.6855C242.292 34.5547 242.424 34.3875 242.513 34.1968C242.602 34.0062 242.646 33.7974 242.641 33.5868C242.643 33.4294 242.613 33.2732 242.553 33.1278C242.492 32.9824 242.403 32.8507 242.291 32.7408C242.006 32.5003 241.68 32.3141 241.328 32.1915L240.617 31.9058C239.973 31.6738 239.389 31.2982 238.911 30.8071C238.644 30.5356 238.434 30.2126 238.295 29.8576C238.156 29.5026 238.09 29.123 238.101 28.7416C238.087 28.2314 238.176 27.7235 238.364 27.2493C238.553 26.7751 238.835 26.3445 239.195 25.9839C239.642 25.5912 240.163 25.2918 240.726 25.1032C241.29 24.9145 241.885 24.8404 242.477 24.8853C243.748 24.8553 244.99 25.271 245.989 26.0608Z" fill="#999999"/>
</g>
<defs>
<clipPath id="clip0_9_847">
<rect width="246" height="55" fill="white"/>
</clipPath>
</defs>
</svg>
