<svg width="106" height="122" viewBox="0 0 106 122" fill="none" xmlns="http://www.w3.org/2000/svg">
<g clip-path="url(#clip0_9_116)">
<path d="M9.70044 121.935C9.70044 121.865 9.70044 121.797 9.70044 121.727V96.5403C9.70044 96.4728 9.70044 96.4021 9.70044 96.3315L9.74968 96.2762L9.80815 96.2271H15.2369L15.2893 96.2762C15.2893 96.3929 15.2893 96.5127 15.2893 96.6325C15.2893 103.101 15.2893 109.572 15.2893 116.044C15.3003 116.164 15.322 116.282 15.3539 116.398H15.6616H90.3137C90.4153 116.398 90.5138 116.398 90.6215 116.398C90.6518 116.297 90.6724 116.195 90.6831 116.09C90.6831 109.605 90.6831 103.124 90.6831 96.6448C90.6831 96.525 90.6831 96.4052 90.6831 96.2854L90.7354 96.2393H96.2196C96.2196 96.2393 96.2196 96.267 96.2196 96.2823L96.2688 96.3407C96.2688 96.4574 96.2688 96.5772 96.2688 96.697C96.2688 105.133 96.2688 113.572 96.2688 122.012H9.7466L9.70044 121.935Z" fill="#7B7B7B"/>
<path d="M9.70055 121.935L9.74671 121.997H9.68823L9.70055 121.935Z" fill="#47454B"/>
<path d="M96.2226 96.224H90.6215C90.5107 96.224 90.403 96.2086 90.2953 96.2086H15.6801C15.5724 96.2086 15.4616 96.2086 15.3539 96.2086H15.3046H9.74352C9.72556 96.2025 9.70609 96.2025 9.68812 96.2086C9.5681 96.2086 9.44807 96.2086 9.33113 96.2086H1.48437e-06V95.8615C1.48437e-06 81.3804 1.48437e-06 66.9003 1.48437e-06 52.4213C-0.000347349 52.2501 0.0607973 52.0845 0.172343 51.9544C3.30734 48.8092 6.44849 45.6701 9.5958 42.5372L9.68505 42.4573C9.68333 42.4768 9.68333 42.4963 9.68505 42.5157V51.8838C9.69547 51.9589 9.71618 52.0323 9.7466 52.1018C9.83646 52.1315 9.92936 52.1511 10.0236 52.1602C11.6813 52.1602 13.3422 52.1602 15.0061 52.1602C15.1015 52.1521 15.1962 52.1367 15.2893 52.1141H15.3354C15.4593 52.1385 15.5848 52.1539 15.7109 52.1602H90.6707C92.4403 52.1602 94.2068 52.1602 95.9764 52.1602C96.0621 52.153 96.1467 52.1366 96.2288 52.1111C96.2589 52.0037 96.2785 51.8936 96.2873 51.7824C96.2873 48.8256 96.2873 45.8667 96.2873 42.9058C96.2873 42.7983 96.2873 42.6908 96.2657 42.5802L96.2903 42.4665C96.3642 42.531 96.4381 42.5955 96.5088 42.6631C99.5864 45.7346 102.675 48.8153 105.775 51.9053C105.85 51.9742 105.909 52.0585 105.948 52.1524C105.986 52.2463 106.004 52.3475 106 52.4489C106 66.9116 106 81.3753 106 95.84V96.2147H96.2226V96.224ZM89.3443 78.8085C89.3762 78.7086 89.3978 78.6057 89.4089 78.5014C89.4089 76.5725 89.4089 74.6436 89.4089 72.7147C89.4026 72.6192 89.3871 72.5246 89.3628 72.4321C89.3591 72.4133 89.3539 72.3948 89.3474 72.3768C89.2399 72.3457 89.1296 72.3251 89.0181 72.3154H79.6839V66.8358H90.64C90.7514 66.8258 90.8617 66.8052 90.9693 66.7744C90.9979 66.6941 91.0165 66.6105 91.0247 66.5256C91.0247 64.5455 91.0247 62.5654 91.0247 60.5853C91.0147 60.5028 90.9929 60.4221 90.96 60.3458H90.7815H72.2393H71.9993C71.971 60.4327 71.9514 60.5222 71.9408 60.613C71.9408 70.1367 71.9408 79.6583 71.9408 89.1779C71.9499 89.2689 71.9696 89.3586 71.9993 89.4451C73.6406 89.4451 75.2707 89.4451 76.8895 89.4451C77.8127 89.4451 78.736 89.4451 79.6346 89.4451C79.663 89.3384 79.6826 89.2295 79.6931 89.1196C79.6931 85.6795 79.6931 82.2394 79.6931 78.7993H79.7454C79.7947 78.7993 79.8439 78.7993 79.8932 78.7993L89.3443 78.8085ZM43.1811 60.3519C43.1507 60.4395 43.1301 60.5301 43.1195 60.6222C43.1195 70.1459 43.1195 79.6675 43.1195 89.1871C43.1297 89.2803 43.1504 89.372 43.1811 89.4605H53.0292C53.1274 89.4534 53.2251 89.4401 53.3216 89.4206C53.6571 89.4156 53.992 89.392 54.3249 89.3499C55.3959 89.1656 56.4792 89.0274 57.5255 88.7356C60.7354 87.8572 63.2375 86.0174 64.8747 83.0933C65.7117 81.6362 66.2446 80.0251 66.4412 78.357C66.5551 77.2974 66.6782 76.2346 66.7305 75.1719C66.7912 73.9833 66.7127 72.7917 66.4966 71.6212C66.3676 70.7709 66.1847 69.9297 65.9488 69.1026C64.8932 65.7577 62.8497 63.2391 59.5936 61.7986C57.4004 60.8706 55.0421 60.3942 52.6599 60.398C52.599 60.3727 52.5347 60.3561 52.4691 60.3488L43.1811 60.3519ZM15.9079 89.4636C15.9448 89.4636 15.9848 89.4636 16.0248 89.4636H23.3863C23.4576 89.4594 23.5286 89.4502 23.5986 89.4359V89.0674V80.2337C23.9064 80.2337 24.2326 80.2337 24.5527 80.2337C26.113 80.2091 27.6764 80.3166 29.2306 80.0556C30.5263 79.8612 31.7881 79.4859 32.979 78.9406C34.3183 78.3408 35.491 77.4243 36.3956 76.2704C37.3002 75.1166 37.9095 73.7601 38.1708 72.3185C38.3943 71.3023 38.4494 70.2564 38.3339 69.2224C38.2941 68.625 38.2212 68.0303 38.1154 67.4409C37.8318 66.0883 37.2118 64.8285 36.3127 63.7776C35.4135 62.7267 34.2639 61.9183 32.9698 61.4269C31.1427 60.7192 29.196 60.3699 27.2363 60.398C27.1351 60.3732 27.0323 60.3557 26.9286 60.3458H18.6192H15.9048C15.8741 60.4322 15.8534 60.5218 15.8432 60.613C15.8432 70.1367 15.8432 79.6583 15.8432 89.1779C15.8493 89.2754 15.869 89.3715 15.9017 89.4636H15.9079Z" fill="#263C8A"/>
<path d="M96.2903 42.4758C96.2903 42.5126 96.2749 42.5526 96.2657 42.5894C96.2473 42.7054 96.235 42.8223 96.2288 42.9396C96.2288 45.9988 96.2288 49.059 96.2288 52.1203H90.6892L90.6738 52.1019C90.6738 52.0527 90.6738 52.0036 90.6738 51.9544V32.5825C90.6738 32.5057 90.6738 32.4258 90.6553 32.349C90.5363 32.3181 90.4148 32.2976 90.2922 32.2876H64.3085C64.17 32.2876 64.0315 32.2876 63.893 32.2876C63.893 32.1678 63.893 32.0511 63.893 31.9313V5.60241H15.6309H15.3631C15.3312 5.71906 15.3096 5.83828 15.2985 5.9587C15.2985 11.5775 15.2985 17.1953 15.2985 22.812V52.1142H9.75891C9.75891 48.8952 9.75891 45.6773 9.75891 42.4604L9.71582 42.3437C9.71582 42.2546 9.71582 42.1655 9.71582 42.0765V0.331713C9.71582 0.24264 9.71582 0.153568 9.71582 0.0644943L9.76506 0.0122746H10.0913H66.9398C67.0407 0.00845051 67.1413 0.0268288 67.2344 0.0661065C67.3275 0.105384 67.4107 0.164607 67.4783 0.239572C76.2596 9.00564 85.044 17.7707 93.8314 26.5347C94.5885 27.2903 95.3548 28.0428 96.1088 28.8045C96.2056 28.8971 96.2657 29.0214 96.278 29.1547C96.278 33.5592 96.278 37.9617 96.278 42.3621C96.2795 42.3816 96.2795 42.4011 96.278 42.4205C96.278 42.4205 96.2565 42.4359 96.2596 42.4389L96.2842 42.4758H96.2903Z" fill="#7B7B7B"/>
<path d="M9.70035 42.3529L9.74343 42.4727C9.72838 42.4682 9.71232 42.4682 9.69727 42.4727L9.70035 42.3529Z" fill="#47454B"/>
<path d="M9.68823 96.2332C9.70619 96.2271 9.72567 96.2271 9.74363 96.2332C9.74213 96.2485 9.74213 96.264 9.74363 96.2793L9.69439 96.3346L9.68823 96.2332Z" fill="#47454B"/>
<path d="M96.2841 42.4758L96.2595 42.4389C96.2595 42.4389 96.2595 42.4389 96.278 42.4205C96.2841 42.4282 96.288 42.4374 96.2891 42.4472C96.2901 42.457 96.2884 42.4669 96.2841 42.4758Z" fill="#722521"/>
<path d="M9.74968 0.0245972L9.70044 0.0768168L9.74968 0.0245972Z" fill="#47454B"/>
<path d="M96.2227 96.224H96.2904C96.2941 96.2311 96.2961 96.239 96.2961 96.247C96.2961 96.2551 96.2941 96.263 96.2904 96.2701H96.238C96.2257 96.2516 96.2227 96.2394 96.2227 96.224Z" fill="#4E0F12"/>
<path d="M96.2256 96.267H96.2779C96.2839 96.2749 96.2871 96.2846 96.2871 96.2946C96.2871 96.3046 96.2839 96.3143 96.2779 96.3223L96.2256 96.267Z" fill="#1D1E23"/>
<path d="M90.6124 116.388C90.5139 116.388 90.4154 116.388 90.3046 116.388H15.6618H15.354C15.354 116.321 15.354 116.25 15.354 116.183V96.4697C15.354 96.399 15.354 96.3314 15.354 96.2608H15.6618H90.3139H90.6216C90.6216 99.6456 90.6216 103.024 90.6216 106.397C90.6196 109.736 90.6165 113.067 90.6124 116.388Z" fill="white"/>
<path d="M15.3661 96.2701C15.3661 96.3407 15.3661 96.4083 15.3661 96.4789V116.186C15.3661 116.253 15.3661 116.324 15.3661 116.391C15.3342 116.276 15.3126 116.158 15.3015 116.038C15.3015 109.566 15.3015 103.095 15.3015 96.6264C15.3015 96.5066 15.3015 96.3868 15.3015 96.2701C15.3028 96.2547 15.3028 96.2393 15.3015 96.224H15.3508C15.3521 96.2404 15.3573 96.2562 15.3661 96.2701Z" fill="#6D6D6C"/>
<path d="M90.6123 116.388C90.6123 113.067 90.6123 109.745 90.6123 106.421C90.6123 103.037 90.6123 99.6579 90.6123 96.2854C90.614 96.269 90.614 96.2525 90.6123 96.2362H90.6615C90.6607 96.2441 90.6616 96.252 90.6643 96.2595C90.6669 96.2669 90.6713 96.2737 90.6769 96.2792C90.6769 96.399 90.6769 96.5188 90.6769 96.6386C90.6769 103.119 90.6769 109.601 90.6769 116.084C90.6651 116.187 90.6434 116.289 90.6123 116.388Z" fill="#A6A6A6"/>
<path d="M9.74966 96.2701C9.74816 96.2547 9.74816 96.2393 9.74966 96.224H9.81429L9.74966 96.2701Z" fill="#4E0F12"/>
<path d="M15.3048 96.224C15.3061 96.2393 15.3061 96.2547 15.3048 96.27L15.2524 96.2209L15.3048 96.224Z" fill="#4E0F12"/>
<path d="M90.6861 96.267C90.6804 96.2615 90.6761 96.2547 90.6735 96.2473C90.6708 96.2398 90.6699 96.2319 90.6707 96.224H90.7384L90.6861 96.267Z" fill="#4E0F12"/>
<path d="M52.6631 60.4041C55.0452 60.4004 57.4036 60.8768 59.5968 61.8047C62.8528 63.2453 64.8963 65.7639 65.9519 69.1088C66.1878 69.9359 66.3708 70.7771 66.4997 71.6274C66.7158 72.7978 66.7943 73.9894 66.7336 75.178C66.6813 76.2408 66.5582 77.3035 66.4443 78.3632C66.2477 80.0313 65.7149 81.6423 64.8779 83.0994C63.2406 86.0235 60.7386 87.8634 57.5287 88.7418C56.4854 89.0275 55.399 89.1657 54.328 89.3561C53.9952 89.3982 53.6602 89.4218 53.3247 89.4267C53.217 89.4267 53.1093 89.4267 52.9985 89.4267H43.1812C43.1812 89.3377 43.1812 89.2486 43.1812 89.1564V60.6744C43.1812 60.5854 43.1812 60.4963 43.1812 60.4072H52.6662L52.6631 60.4041ZM58.8182 73.5102C58.7382 72.8959 58.7012 72.257 58.5658 71.6458C58.0272 69.1886 56.6577 67.2444 53.7125 66.7683C53.1893 66.6853 52.6569 66.6485 52.1276 66.6024C51.7183 66.5625 51.309 66.541 50.8966 66.5103V83.2622C51.7586 83.3038 52.6226 83.2491 53.4725 83.0994C55.4883 82.7554 56.9901 81.7173 57.9103 79.8774C58.4766 78.6628 58.7907 77.3464 58.8336 76.0074L58.8182 73.5102Z" fill="white"/>
<path d="M27.2394 60.401C29.1991 60.373 31.1458 60.7223 32.9729 61.43C34.267 61.9214 35.4166 62.7298 36.3158 63.7807C37.2149 64.8316 37.8349 66.0914 38.1185 67.444C38.2243 68.0333 38.2972 68.6281 38.337 69.2255C38.4525 70.2594 38.3974 71.3053 38.1739 72.3215C37.9126 73.7632 37.3033 75.1196 36.3987 76.2735C35.4941 77.4273 34.3214 78.3438 32.9821 78.9437C31.7912 79.489 30.5294 79.8643 29.2336 80.0586C27.6795 80.3197 26.1161 80.2122 24.5558 80.2368C24.248 80.2368 23.9187 80.2368 23.6017 80.2368C23.5684 80.3458 23.5467 80.458 23.5371 80.5716C23.5371 83.3871 23.5371 86.2037 23.5371 89.0213C23.5371 89.1441 23.5371 89.267 23.5186 89.4021H15.9048C15.9048 89.2946 15.9048 89.1841 15.9048 89.0766C15.9048 79.6286 15.9048 70.1797 15.9048 60.7297C15.9048 60.6191 15.9048 60.5116 15.9048 60.401H27.2394ZM23.5956 74.103C23.6716 74.1335 23.7513 74.1541 23.8326 74.1644C24.7312 74.1644 25.6329 74.1644 26.5316 74.1644C26.7101 74.1644 26.8855 74.1306 27.0609 74.1153C27.2363 74.0999 27.4548 74.0784 27.6518 74.0477C29.1906 73.7897 30.2739 72.9696 30.6678 71.4308C30.7912 70.832 30.8377 70.2199 30.8063 69.6094C30.8336 69.0905 30.7099 68.5748 30.4499 68.1246C30.1899 67.6743 29.8049 67.3089 29.3414 67.0723C28.5716 66.7036 27.7328 66.5006 26.8793 66.4765C26.825 66.455 26.7681 66.4405 26.7101 66.4335H23.7402C23.691 66.4335 23.6417 66.4765 23.5925 66.498L23.5771 66.5532C23.5542 66.6471 23.5388 66.7426 23.531 66.8389V73.7743C23.5388 73.8706 23.5542 73.9661 23.5771 74.06C23.5863 74.0661 23.5894 74.0846 23.5956 74.103Z" fill="white"/>
<path d="M89.3597 72.383C89.3662 72.401 89.3714 72.4195 89.3751 72.4383C89.3751 72.5642 89.3751 72.6932 89.3751 72.8222C89.3751 74.7982 89.3751 76.7742 89.3751 78.7502H80.1116C79.9959 78.7582 79.8807 78.7736 79.7669 78.7963H79.7146C79.6827 78.914 79.6611 79.0342 79.65 79.1557C79.65 82.5671 79.65 85.9785 79.65 89.3899H72.0054C72.0054 89.2916 72.0054 89.1933 72.0054 89.0828V60.7052C72.0054 60.6069 72.0054 60.5086 72.0054 60.398H90.9661C90.9661 60.5178 90.9661 60.6345 90.9661 60.7543V66.7652H80.0193C79.9081 66.7757 79.798 66.7952 79.69 66.8236C79.6659 66.9059 79.6494 66.9902 79.6408 67.0754C79.6408 68.7361 79.6408 70.3968 79.6408 72.0574C79.6494 72.1427 79.6659 72.227 79.69 72.3093C79.7979 72.3386 79.9081 72.3592 80.0193 72.3707L89.3597 72.383Z" fill="white"/>
<path d="M90.6708 52.1817H15.7202C15.5941 52.1754 15.4686 52.16 15.3447 52.1356V52.1141C15.4648 52.1141 15.5817 52.1141 15.7017 52.1141H90.2676H90.6246H90.6523H90.68L90.6954 52.1326C90.6824 52.1461 90.6738 52.1632 90.6708 52.1817Z" fill="#263C8A"/>
<path d="M90.6215 96.2209C90.6232 96.2373 90.6232 96.2537 90.6215 96.2701H90.3137H15.6647H15.3569C15.3524 96.253 15.3524 96.235 15.3569 96.2178C15.4647 96.2178 15.5754 96.2178 15.6832 96.2178H90.2952C90.403 96.2056 90.5107 96.2148 90.6215 96.2209Z" fill="#F6B2B6"/>
<path d="M15.2986 52.1203V22.8182C15.2986 17.2014 15.2986 11.5837 15.2986 5.96488C15.3097 5.84446 15.3313 5.72523 15.3632 5.60858C15.3632 5.70687 15.3632 5.80823 15.3632 5.91573V51.8469C15.3632 51.936 15.3632 52.0251 15.3632 52.1142V52.1357L15.2986 52.1203Z" fill="#6D6D6C"/>
<path d="M15.9047 60.4072C15.9047 60.5178 15.9047 60.6253 15.9047 60.7359C15.9047 70.1838 15.9047 79.6328 15.9047 89.0827C15.9047 89.1903 15.9047 89.3008 15.9047 89.4083C15.9017 89.4266 15.9017 89.4453 15.9047 89.4636C15.8713 89.3768 15.8495 89.2859 15.8401 89.1933C15.8401 79.6717 15.8401 70.15 15.8401 60.6284C15.8503 60.5372 15.871 60.4476 15.9016 60.3611C15.899 60.3765 15.9 60.3923 15.9047 60.4072Z" fill="#263C8A"/>
<path d="M43.1812 60.4072C43.1812 60.4963 43.1812 60.5853 43.1812 60.6744V89.1411C43.1812 89.2332 43.1812 89.3223 43.1812 89.4114C43.1766 89.4295 43.1766 89.4485 43.1812 89.4666C43.1505 89.3781 43.1298 89.2864 43.1196 89.1933C43.1196 79.6716 43.1196 70.15 43.1196 60.6283C43.1302 60.5363 43.1508 60.4456 43.1812 60.358C43.1776 60.3742 43.1776 60.391 43.1812 60.4072Z" fill="#263C8A"/>
<path d="M72.0055 60.4102C72.0055 60.5085 72.0055 60.6068 72.0055 60.7174V89.0981C72.0055 89.1994 72.0055 89.2977 72.0055 89.4052C72.0042 89.4226 72.0042 89.44 72.0055 89.4574C71.9758 89.3709 71.9562 89.2812 71.947 89.1902C71.947 79.6686 71.947 70.1469 71.947 60.6253C71.9577 60.5345 71.9772 60.445 72.0055 60.358C72.0041 60.3754 72.0041 60.3929 72.0055 60.4102Z" fill="#263C8A"/>
<path d="M72.0053 60.4103C72.0038 60.3919 72.0038 60.3734 72.0053 60.355H72.2453H90.7937H90.9722C90.9783 60.3729 90.9783 60.3923 90.9722 60.4103H72.0053Z" fill="#263C8A"/>
<path d="M15.9017 89.4636C15.8987 89.4453 15.8987 89.4266 15.9017 89.4083H23.5156C23.5156 89.2731 23.534 89.1503 23.534 89.0274C23.534 86.2119 23.534 83.3953 23.534 80.5777C23.5436 80.4642 23.5653 80.3519 23.5986 80.2429V89.0766V89.4451C23.5286 89.4594 23.4576 89.4686 23.3863 89.4728H16.0186C15.9786 89.4728 15.9386 89.4666 15.9017 89.4636Z" fill="#FBD9DA"/>
<path d="M15.9047 60.4072C15.8999 60.3901 15.8999 60.3721 15.9047 60.355H18.6191H26.9284C27.0322 60.3649 27.135 60.3824 27.2362 60.4072H15.9047Z" fill="#263C8A"/>
<path d="M79.6963 66.8389C79.8043 66.8106 79.9144 66.7911 80.0256 66.7806H90.9724C90.8649 66.8114 90.7546 66.832 90.6431 66.842L79.6963 66.8389Z" fill="#263C8A"/>
<path d="M79.6284 89.4052C79.6284 85.9938 79.6284 82.5824 79.6284 79.171C79.6395 79.0496 79.6611 78.9293 79.6931 78.8116C79.6931 82.2517 79.6931 85.6918 79.6931 89.1319C79.6825 89.2418 79.663 89.3507 79.6346 89.4575C79.634 89.4399 79.632 89.4224 79.6284 89.4052Z" fill="#263C8A"/>
<path d="M43.1812 89.4667C43.1766 89.4485 43.1766 89.4295 43.1812 89.4114H52.9985C53.1093 89.4114 53.217 89.4114 53.3248 89.4114C53.2283 89.4309 53.1306 89.4443 53.0324 89.4513L43.1812 89.4667Z" fill="#F9CFD0"/>
<path d="M89.3598 72.383H80.0256C79.9143 72.3714 79.8042 72.3509 79.6963 72.3215H89.0305C89.142 72.3313 89.2523 72.3519 89.3598 72.383Z" fill="#263C8A"/>
<path d="M9.69727 42.4789C9.71233 42.4743 9.72839 42.4743 9.74344 42.4789C9.74344 45.6937 9.74344 48.9106 9.74344 52.1295C9.71302 52.06 9.69231 51.9866 9.68188 51.9114V42.5434C9.68484 42.5214 9.69 42.4998 9.69727 42.4789Z" fill="#263C8A"/>
<path d="M79.7546 78.7994C79.8684 78.7767 79.9836 78.7613 80.0993 78.7533H89.3443C89.352 78.772 89.352 78.793 89.3443 78.8117H79.9024C79.8531 78.8117 79.8039 78.8024 79.7546 78.7994Z" fill="#FCE6E7"/>
<path d="M96.2256 52.1203C96.2256 49.0611 96.2256 46.0008 96.2256 42.9396C96.2318 42.8223 96.2441 42.7054 96.2625 42.5894C96.2625 42.7 96.2841 42.8075 96.2841 42.915C96.2841 45.8739 96.2841 48.8327 96.2841 51.7916C96.2753 51.9028 96.2557 52.0129 96.2256 52.1203Z" fill="#263C8A"/>
<path d="M43.1812 60.4072C43.1766 60.3891 43.1766 60.3701 43.1812 60.3519H52.4784C52.544 60.3592 52.6083 60.3758 52.6692 60.4011H43.1812V60.4072Z" fill="#263C8A"/>
<path d="M79.6286 89.4052C79.6301 89.4226 79.6301 89.44 79.6286 89.4574C78.7053 89.4574 77.7975 89.4574 76.8834 89.4574C75.2564 89.4574 73.6263 89.4574 71.9932 89.4574C71.9919 89.44 71.9919 89.4226 71.9932 89.4052H79.6286Z" fill="#263C8A"/>
<path d="M90.9661 60.4072C90.9722 60.3893 90.9722 60.3699 90.9661 60.3519C90.999 60.4283 91.0207 60.509 91.0307 60.5915C91.0307 62.5716 91.0307 64.5517 91.0307 66.5318C91.0226 66.6167 91.004 66.7003 90.9753 66.7806V60.7635C90.9753 60.6437 90.9691 60.5332 90.9661 60.4072Z" fill="#263C8A"/>
<path d="M89.3442 78.8086C89.3519 78.7899 89.3519 78.7689 89.3442 78.7502C89.3442 76.7763 89.3442 74.8003 89.3442 72.8222C89.3442 72.6932 89.3442 72.5642 89.3442 72.4383C89.3686 72.5308 89.384 72.6254 89.3904 72.7209C89.3904 74.6498 89.3904 76.5787 89.3904 78.5076C89.3849 78.6092 89.3695 78.71 89.3442 78.8086Z" fill="#263C8A"/>
<path d="M90.6707 52.1817C90.671 52.1642 90.6763 52.1472 90.686 52.1326H96.2256C96.1435 52.1581 96.0589 52.1745 95.9733 52.1817C94.2068 52.1848 92.4402 52.1817 90.6707 52.1817Z" fill="#263C8A"/>
<path d="M9.74976 52.1234H15.2893C15.1963 52.1459 15.1016 52.1613 15.0062 52.1694C13.3443 52.1694 11.6835 52.1694 10.0237 52.1694C9.93094 52.1641 9.8391 52.1486 9.74976 52.1234Z" fill="#263C8A"/>
<path d="M79.6869 72.3216C79.6629 72.2393 79.6464 72.155 79.6377 72.0697C79.6377 70.407 79.6377 68.7464 79.6377 67.0877C79.6464 67.0025 79.6629 66.9182 79.6869 66.8359V72.3216Z" fill="#F7BDC0"/>
<path d="M15.3601 52.1142C15.3601 52.0251 15.3601 51.936 15.3601 51.8469V5.90652C15.3601 5.80823 15.3601 5.70687 15.3601 5.59937H15.6279H63.8838V31.916C63.8838 32.0358 63.8838 32.1525 63.8838 32.2723C63.9981 32.3076 64.1156 32.3312 64.2347 32.3429H90.2092H90.5969C90.5969 32.3921 90.5969 32.4412 90.5969 32.4904C90.5969 39.0286 90.5969 45.5657 90.5969 52.1019H90.2399H15.7171C15.5971 52.1234 15.4832 52.1172 15.3601 52.1142Z" fill="white"/>
<path d="M90.6062 32.3552H90.2184H64.2439C64.1249 32.3435 64.0073 32.3198 63.8931 32.2845C64.0316 32.2845 64.17 32.2845 64.3085 32.2845H90.2954C90.418 32.2945 90.5395 32.3151 90.6585 32.346L90.6062 32.3552Z" fill="#9A9999"/>
<path d="M90.6062 32.3552H90.6585C90.6585 32.432 90.677 32.5118 90.677 32.5886V51.9698C90.677 52.0189 90.677 52.068 90.677 52.1172H90.6493H90.6216C90.6216 45.581 90.6216 39.0439 90.6216 32.5057C90.6185 32.4534 90.6093 32.4043 90.6062 32.3552Z" fill="#A6A6A6"/>
<path d="M58.8089 76.0135C58.7661 77.3525 58.452 78.6689 57.8857 79.8836C56.9624 81.7265 55.4636 82.7616 53.4478 83.1056C52.5987 83.253 51.7358 83.3055 50.875 83.2622V66.5103C51.2935 66.541 51.7029 66.5625 52.106 66.6024C52.6354 66.6485 53.1678 66.6853 53.691 66.7682C56.6362 67.2443 57.9995 69.1825 58.5443 71.6458C58.6797 72.2601 58.7166 72.8744 58.7966 73.5102L58.8089 76.0135Z" fill="#263C8A"/>
<path d="M23.5801 66.541L23.5955 66.4857H26.8823C27.7358 66.5098 28.5746 66.7128 29.3443 67.0816C29.8079 67.3181 30.1929 67.6836 30.4529 68.1338C30.7128 68.584 30.8366 69.0997 30.8092 69.6187C30.8407 70.2292 30.7941 70.8412 30.6708 71.44C30.2768 72.9758 29.1935 73.799 27.6547 74.057C27.4578 74.0877 27.2608 74.1 27.0639 74.1245H23.5985C23.5985 74.1061 23.5985 74.0877 23.5832 74.0693C23.5832 72.5734 23.5832 71.0807 23.5832 69.5879C23.5924 68.5559 23.5832 67.5485 23.5801 66.541Z" fill="#263C8A"/>
<path d="M23.5801 66.541C23.5801 67.5485 23.5801 68.5559 23.5801 69.5664C23.5801 71.0592 23.5801 72.5519 23.5801 74.0478C23.5572 73.9539 23.5418 73.8584 23.5339 73.7621V66.8267C23.5418 66.7304 23.5572 66.6349 23.5801 66.541Z" fill="#FCE0E1"/>
<path d="M23.5955 74.103H27.0608C26.8854 74.103 26.7099 74.1522 26.5314 74.1522C25.6328 74.1522 24.7311 74.1522 23.8324 74.1522C23.7517 74.1458 23.6721 74.1293 23.5955 74.103Z" fill="#263C8A"/>
<path d="M26.8701 66.4734H23.5833C23.6325 66.4519 23.6817 66.4089 23.731 66.4089H26.7008C26.7599 66.4228 26.8168 66.4445 26.8701 66.4734Z" fill="#F08589"/>
</g>
<defs>
<clipPath id="clip0_9_116">
<rect width="106" height="122" fill="white"/>
</clipPath>
</defs>
</svg>
