<svg width="270" height="60" viewBox="0 0 270 60" fill="none" xmlns="http://www.w3.org/2000/svg">
<g clip-path="url(#clip0_9_816)">
<path d="M104.71 50.1718H265.773L266.914 47.3672H105.899L104.71 50.1718Z" fill="white"/>
<path d="M102.668 55.026H263.636C263.996 54.3428 264.332 53.6357 264.632 52.9405L264.921 52.2094H103.869L102.668 55.026Z" fill="white"/>
<path d="M100.627 59.8442H260.478C261.192 58.9455 261.857 58.0092 262.471 57.0396H101.756L100.555 59.8442" fill="white"/>
<path d="M45.7865 0.012207L40.2869 13.1964H25.3009L30.7885 0.012207H16.8953L0 40.5955H13.9053L20.4736 24.7865H35.4716L28.8793 40.5955H42.7965L59.6918 0.012207H45.7865Z" fill="white"/>
<path d="M97.2649 24.4387L101.792 13.5198H115.337L110.786 24.4387H97.2649Z" fill="white"/>
<path d="M108.648 40.5953L125.544 0.0119629H139.365L127.081 29.5325H147.807L143.219 40.5953H108.648Z" fill="white"/>
<path d="M98.6338 9.95996H84.4763L76.5391 29.065H64.6872L72.6365 9.95996H58.527L49.401 31.8697C49.3289 32.0135 49.2569 32.1813 49.1968 32.3252C47.5397 36.2564 49.1008 39.5165 52.6671 39.8881H53.0754H53.3876H53.7118H72.012L68.1334 49.1409H51.0341L46.519 59.9999H70.7152C74.7258 59.8321 79.2409 56.5121 80.946 52.4131L80.6458 53.1202L98.5858 9.97196" fill="white"/>
<path d="M228.572 40.6432L215.448 25.6492L241.181 9.79225H222.412L207.462 18.9013L215.328 0H202.443L185.524 40.6432H198.42L202.191 31.5701L209.564 40.6432H228.572Z" fill="white"/>
<path d="M174.524 28.9692C173.937 30.2896 173.001 31.4255 171.817 32.2553C170.632 33.0851 169.243 33.5775 167.8 33.6796H165.278C162.684 33.6796 161.448 31.5701 162.528 28.9692L165.686 21.3703C166.271 20.0614 167.199 18.9342 168.372 18.1074C169.545 17.2806 170.919 16.7847 172.351 16.672H174.885C177.49 16.672 178.703 18.7694 177.634 21.3703L174.476 28.9692M184.395 7.99438H170.346C163.717 7.99438 156.128 13.3759 153.366 19.98L148.995 30.5153C146.233 37.1314 149.356 42.5009 155.96 42.5009H169.997C176.614 42.5009 184.203 37.0954 186.989 30.5153L191.372 19.98C194.121 13.352 191.011 7.99438 184.395 7.99438Z" fill="white"/>
<path d="M235.621 27.4111H239.848C240.528 27.3979 241.206 27.4745 241.865 27.6389C242.455 27.8121 242.984 28.1487 243.39 28.6097C243.721 28.976 243.976 29.4039 244.141 29.8687C244.306 30.3335 244.377 30.8261 244.351 31.3184C244.373 31.855 244.287 32.3907 244.097 32.8932C243.908 33.3957 243.618 33.8547 243.246 34.2429C242.661 34.7968 241.927 35.1676 241.133 35.3097L244.567 40.7272H240.965L237.747 35.4775L237.11 40.7272H234.036L235.621 27.4111ZM238.407 29.8082L237.939 33.4039H238.707C239.34 33.4423 239.968 33.2741 240.496 32.9245C240.727 32.7387 240.91 32.5 241.029 32.2289C241.148 31.9577 241.2 31.6619 241.181 31.3664C241.201 31.1135 241.152 30.8599 241.04 30.6322C240.928 30.4044 240.757 30.2109 240.544 30.072C240.023 29.8163 239.443 29.7045 238.863 29.7483L238.407 29.8082Z" fill="white"/>
<path d="M247.737 27.411H250.823L249.935 34.6744C249.877 35.0715 249.845 35.4718 249.838 35.8729C249.799 36.4974 250.006 37.1125 250.415 37.5869C250.904 38.0055 251.536 38.22 252.18 38.1861C252.534 38.2131 252.89 38.1687 253.226 38.0554C253.562 37.9422 253.872 37.7624 254.137 37.5269C254.696 36.7944 255.011 35.906 255.038 34.9859L255.963 27.447H259.061L258.1 35.1897C258.004 35.9209 257.932 36.4722 257.86 36.8318C257.757 37.3085 257.609 37.7742 257.416 38.2221C257.222 38.747 256.919 39.2249 256.527 39.6244C255.931 40.1459 255.235 40.5421 254.482 40.7892C253.729 41.0363 252.934 41.1293 252.144 41.0626C251.385 41.1234 250.621 41.0329 249.898 40.7962C249.174 40.5596 248.505 40.1817 247.929 39.6843C247.527 39.2814 247.213 38.7996 247.006 38.2695C246.799 37.7394 246.705 37.1724 246.728 36.604C246.728 36.1725 246.788 35.4055 246.896 34.5065L247.737 27.411Z" fill="white"/>
<path d="M269.988 28.4299L268.451 30.6592C267.854 30.0721 267.055 29.7336 266.217 29.7124C265.771 29.677 265.326 29.7954 264.957 30.0479C264.81 30.1608 264.691 30.3061 264.61 30.4725C264.528 30.6389 264.487 30.8217 264.488 31.0067C264.488 31.1832 264.53 31.3572 264.612 31.5138C264.693 31.6704 264.812 31.8048 264.957 31.9057C265.362 32.1845 265.797 32.4176 266.253 32.6009L267.034 32.9604C267.71 33.2459 268.311 33.6851 268.787 34.2429C269.252 34.8326 269.494 35.5666 269.472 36.3164C269.493 36.9445 269.386 37.5704 269.157 38.1557C268.928 38.741 268.581 39.2734 268.139 39.7203C267.621 40.1806 267.017 40.5332 266.361 40.7576C265.706 40.9819 265.012 41.0734 264.32 41.0268C263.396 41.05 262.48 40.8441 261.654 40.4275C260.992 40.0461 260.393 39.565 259.877 39.0012L261.594 36.8078C261.899 37.228 262.277 37.5895 262.711 37.8746C263.182 38.1584 263.722 38.3077 264.272 38.306C264.797 38.3313 265.316 38.184 265.749 37.8866C265.93 37.7439 266.075 37.5614 266.172 37.3535C266.27 37.1455 266.319 36.9177 266.313 36.688C266.315 36.5163 266.281 36.3461 266.215 36.1876C266.149 36.0291 266.052 35.8854 265.929 35.7651C265.617 35.5027 265.258 35.2996 264.873 35.1658L264.092 34.8542C263.385 34.6018 262.744 34.1919 262.219 33.6556C261.925 33.3572 261.696 33.0027 261.543 32.6134C261.39 32.2242 261.318 31.8081 261.33 31.3903C261.316 30.8338 261.415 30.2802 261.621 29.7631C261.828 29.246 262.137 28.7761 262.531 28.382C263.022 27.9535 263.593 27.6269 264.211 27.4211C264.83 27.2153 265.483 27.1345 266.133 27.1834C267.523 27.1465 268.884 27.5864 269.988 28.4299Z" fill="white"/>
</g>
<defs>
<clipPath id="clip0_9_816">
<rect width="270" height="60" fill="white"/>
</clipPath>
</defs>
</svg>
