<svg width="26" height="18" viewBox="0 0 26 18" fill="#263C8A" xmlns="http://www.w3.org/2000/svg">
<path d="M12.99 17.9966H8.51079C7.00156 17.9966 5.49234 17.9966 3.98311 17.9966C3.15517 17.9966 2.32636 18.0037 1.49756 17.9966C1.12528 17.9935 0.767381 17.8652 0.492491 17.6363C0.217601 17.4075 0.0450691 17.0942 0.00796248 16.7566C0.00190849 16.6994 -0.000701184 16.6419 0.000160458 16.5845V1.42895C0.000160458 0.602495 0.67481 -0.00135668 1.58069 0.000222027C3.31798 0.000222027 5.05614 0.000222027 6.79429 0.000222027H12.0087H17.2232C18.9617 0.000222027 20.6998 0.000222027 22.4377 0.000222027H24.4607C24.6641 -0.00310453 24.866 0.0309797 25.0546 0.100442C25.2431 0.169905 25.4143 0.273318 25.558 0.40449C25.7017 0.535661 25.8149 0.691898 25.8907 0.863854C25.9666 1.03581 26.0037 1.21995 25.9997 1.40527C25.9997 6.46606 25.9997 11.5266 25.9997 16.5869C26.0032 16.7733 25.9655 16.9585 25.8889 17.1313C25.8122 17.3042 25.6982 17.4613 25.5535 17.5931C25.4088 17.7249 25.2365 17.8289 25.0469 17.8988C24.8572 17.9686 24.654 18.003 24.4495 17.9998C22.7041 17.9998 20.9593 17.9998 19.2151 17.9998C17.5333 17.9998 15.8511 17.9998 14.1687 17.9998L12.99 17.9966ZM12.99 11.4687L23.593 1.79126H2.38699L12.99 11.4687ZM16.4438 10.8712C16.4126 10.9035 16.3745 10.9501 16.3294 10.9904C15.5893 11.666 14.8482 12.3415 14.1063 13.0166C13.963 13.153 13.7908 13.2616 13.6002 13.3358C13.4097 13.4099 13.2046 13.4481 12.9973 13.4481C12.7901 13.4481 12.585 13.4099 12.3944 13.3358C12.2038 13.2616 12.0317 13.153 11.8884 13.0166C11.322 12.5014 10.7564 11.9849 10.1918 11.4671C9.97094 11.2643 9.75357 11.0574 9.56824 10.8846L3.72589 16.2064H22.306L16.4438 10.8712ZM24.0381 4.01091C21.9873 5.87694 19.94 7.7406 17.9204 9.57742C19.9585 11.4355 21.9977 13.295 24.0381 15.1558V4.01091ZM1.97822 4.01565V15.1613L8.09076 9.59084L1.97822 4.01565Z" fill="#263C8A"/>
</svg>
