<svg width="24" height="22" viewBox="0 0 24 22" fill="#263C8A" xmlns="http://www.w3.org/2000/svg">
<path d="M18.2614 22C17.538 21.9069 16.8246 21.7513 16.1295 21.5348C14.3234 20.9923 12.5857 20.2532 10.9492 19.3314C9.04744 18.2806 7.29612 16.9898 5.74053 15.4923C4.66204 14.4527 3.68987 13.3131 2.83778 12.0898C2.13261 11.0766 1.51999 10.005 1.00697 8.88727C0.67285 8.15873 0.379006 7.40966 0.114454 6.65524C-0.114397 6.00259 0.0320704 5.34637 0.271906 4.72319C0.718624 3.56253 1.46834 2.58848 2.32607 1.69388C2.79842 1.20105 3.31563 0.749283 3.82551 0.293056C4.29511 -0.128351 4.81963 -0.0908527 5.24804 0.376981C6.07648 1.28229 6.91499 2.17957 7.72421 3.10095C8.16818 3.60628 8.5673 4.14911 8.97648 4.68301C9.18337 4.95086 9.10922 5.44101 8.83368 5.65618C7.95543 6.34562 7.16089 7.13074 6.46553 7.99624C6.36372 8.1177 6.30239 8.2666 6.28977 8.423C6.27238 8.66942 6.4518 8.94351 6.4518 8.94351C7.16082 10.692 8.27945 12.2545 9.71826 13.5061C11.1571 14.7576 12.8761 15.6634 14.738 16.1512C14.7876 16.1736 14.8387 16.1927 14.8909 16.2083C14.9917 16.2406 15.0985 16.2516 15.204 16.2405C15.3667 16.2071 15.5147 16.1254 15.6278 16.0066C16.2457 15.4289 16.6796 14.7138 17.1657 14.0424C17.2682 13.8995 17.3652 13.7522 17.4623 13.6058C17.7653 13.1478 18.2147 13.0246 18.6972 13.3147C19.4158 13.7468 20.1142 14.2075 20.8246 14.6539C21.7235 15.217 22.6249 15.7774 23.5287 16.3351C24.0697 16.6681 24.1457 17.0976 23.7529 17.6547C22.9746 18.7649 22.028 19.7535 20.9454 20.5867C20.3758 21.0058 19.7759 21.3842 19.1503 21.7188C18.8894 21.8679 18.5608 21.9107 18.2614 22Z" fill="#263C8A"/>
</svg>
